<?xml version="1.0" encoding="utf-8"?>
<!-- Generator: Adobe Illustrator 27.5.0, SVG Export Plug-In . SVG Version: 6.00 Build 0)  -->
<svg version="1.1" id="Layer_1" xmlns="http://www.w3.org/2000/svg" xmlns:xlink="http://www.w3.org/1999/xlink" x="0px" y="0px"
	 viewBox="0 0 272.072 563.974" style="enable-background:new 0 0 272.072 563.974;" xml:space="preserve">
<g>
	<g>
		<g>
			<g>
				<path style="fill:#6280CC;" d="M239.672,41.814H34.045c-4.239,0-7.678-3.437-7.678-7.678s3.439-7.678,7.678-7.678h205.627
					c4.239,0,7.678,3.437,7.678,7.678S243.911,41.814,239.672,41.814z"/>
			</g>
			<g>
				<path style="fill:#6280CC;" d="M227.474,77.939H46.242c-3.979,0-7.208-3.227-7.208-7.208s3.229-7.208,7.208-7.208h181.232
					c3.979,0,7.208,3.227,7.208,7.208S231.453,77.939,227.474,77.939z"/>
			</g>
			<g>
				<path style="fill:#6280CC;" d="M239.672,537.535H34.045c-4.239,0-7.678-3.437-7.678-7.678c0-4.242,3.439-7.678,7.678-7.678
					h205.627c4.239,0,7.678,3.437,7.678,7.678C247.35,534.098,243.911,537.535,239.672,537.535z"/>
			</g>
			<g>
				<path style="fill:#6280CC;" d="M227.474,500.47H46.242c-3.979,0-7.208-3.227-7.208-7.208s3.229-7.208,7.208-7.208h181.232
					c3.979,0,7.208,3.227,7.208,7.208S231.453,500.47,227.474,500.47z"/>
			</g>
		</g>
		<g>
			<g>
				<path style="fill:#6280CC;" d="M227.654,329.428H44.997c-3.999,0-7.238-3.239-7.238-7.236c0-3.997,3.239-7.236,7.238-7.236
					h182.657c3.999,0,7.238,3.239,7.238,7.236C234.893,326.189,231.653,329.428,227.654,329.428z"/>
			</g>
			<g>
				<path style="fill:#6280CC;" d="M207.253,369.677c-0.02,0-0.04,0-0.06,0l-140.791-1.282c-3.494-0.03-6.304-2.889-6.269-6.386
					c0.03-3.477,2.859-6.271,6.329-6.271c0.02,0,0.04,0,0.06,0l140.791,1.282c3.494,0.03,6.304,2.889,6.269,6.386
					C213.552,366.883,210.723,369.677,207.253,369.677z"/>
			</g>
			<g>
				<path style="fill:#6280CC;" d="M214.787,207.351H57.865c-3.704,0-6.709-3.004-6.709-6.709s3.004-6.709,6.709-6.709h156.922
					c3.704,0,6.709,3.004,6.709,6.709S218.491,207.351,214.787,207.351z"/>
			</g>
			<g>
				<path style="fill:#6280CC;" d="M227.654,248.395H44.997c-3.999,0-7.238-3.239-7.238-7.236c0-3.997,3.239-7.236,7.238-7.236
					h182.657c3.999,0,7.238,3.239,7.238,7.236C234.893,245.156,231.653,248.395,227.654,248.395z"/>
			</g>
			<g>
				<path style="fill:#6280CC;" d="M234.908,290.039c-0.02,0-0.045,0-0.07,0l-196.099-1.785c-4.124-0.038-7.438-3.414-7.398-7.538
					c0.035-4.104,3.374-7.403,7.468-7.403c0.02,0,0.045,0,0.07,0l196.099,1.785c4.124,0.038,7.438,3.414,7.398,7.538
					C242.341,286.74,239.002,290.039,234.908,290.039z"/>
			</g>
		</g>
	</g>
	<g>
		<path style="fill:#EF8BBD;" d="M217.88,374.296c-43.664,51.394-83.336,70.948-115.278,86.663
			c-2.815,1.382-5.528,2.713-8.139,4.044c-33.836,16.892-54.568,30.764-63.935,86.151c-1.28,7.525-7.781,12.797-15.152,12.797
			c-0.819,0-1.689-0.051-2.559-0.205c-8.395-1.433-14.026-9.317-12.593-17.712c11.313-66.648,40.286-87.841,75.146-105.808
			c4.453-2.304,9.009-4.556,13.667-6.859c30.918-15.203,65.932-32.403,105.45-78.985c22.216-26.209,30.406-63.833,21.807-100.689
			c-10.647-45.917-44.995-83.541-96.594-105.962c-18.275-7.934-33.785-16.483-46.889-25.339C1.503,74.276,0.018,18.275,0.018,15.511
			C-0.084,7.013,6.775,0.102,15.222,0h0.153c8.344,0,15.203,6.706,15.357,15.101c0.102,2.508,2.662,48.783,70.232,88.813
			c9.06,5.375,19.349,10.647,30.969,15.664c60.762,26.363,101.355,71.512,114.306,127.154
			C256.988,293.007,246.392,340.665,217.88,374.296z"/>
	</g>
	<g>
		<path style="fill:#8BB6EF;" d="M256.693,563.974c-7.353,0-13.852-5.299-15.122-12.795c-10.113-59.717-33.448-71.203-72.11-90.234
			c-31.908-15.704-71.62-35.253-115.271-86.674c-28.514-33.593-39.107-81.273-28.334-127.543
			C38.804,191.102,79.4,145.944,140.162,119.57C238.237,76.999,241.276,17.571,241.361,15.064
			c0.27-8.301,7.084-14.952,15.347-14.952c0.11,0,0.215,0,0.32,0.002c8.408,0.175,15.117,6.989,15.042,15.399
			c-0.03,3.292-2.08,81.181-119.68,132.23c-51.619,22.405-85.932,60.032-96.62,105.948c-8.578,36.845-0.415,74.489,21.835,100.704
			c39.522,46.56,74.529,63.792,105.418,78.993c40.831,20.098,76.094,37.455,88.831,112.661c1.415,8.363-4.214,16.289-12.577,17.706
			C258.408,563.902,257.548,563.974,256.693,563.974z"/>
	</g>
</g>
</svg>
